<?xml version="1.0" standalone="no"?><!DOCTYPE svg PUBLIC "-//W3C//DTD SVG 1.1//EN" "http://www.w3.org/Graphics/SVG/1.1/DTD/svg11.dtd"><svg t="1625533326374" class="icon" viewBox="0 0 1024 1024" version="1.1" xmlns="http://www.w3.org/2000/svg" p-id="5201" xmlns:xlink="http://www.w3.org/1999/xlink" width="200" height="200"><defs><style type="text/css"></style></defs><path d="M476.6 535.5h-58.9c-6.5 0-11.8 5.3-11.8 11.8v58.9c0 6.5 5.3 11.8 11.8 11.8h58.9c6.5 0 11.8-5.3 11.8-11.8v-58.9c0-6.5-5.3-11.8-11.8-11.8z m0 64.8c0 3.3-2.6 5.9-5.9 5.9h-47.2c-3.3 0-5.9-2.6-5.9-5.9v-47.2c0-3.3 2.6-5.9 5.9-5.9h47.2c3.3 0 5.9 2.6 5.9 5.9v47.2z m38.3-64.8H509c-1.6 0-3 1.3-3 2.9v53c0 1.6 1.3 2.9 3 2.9h5.9c1.6 0 2.9-1.3 2.9-2.9v-53c0-1.6-1.3-2.9-2.9-2.9z m-5.9-47.2h5.9c1.6 0 2.9-1.3 2.9-2.9v-76.6c0-1.6-1.3-2.9-2.9-2.9H509c-1.6 0-3 1.3-3 2.9v76.6c0 1.6 1.4 2.9 3 2.9z m-91.4 0h58.9c6.5 0 11.8-5.3 11.8-11.8v-58.9c0-6.5-5.3-11.8-11.8-11.8h-58.9c-6.5 0-11.8 5.3-11.8 11.8v58.9c0 6.5 5.3 11.8 11.8 11.8z m0-64.8c0-3.3 2.6-5.9 5.9-5.9h47.2c3.3 0 5.9 2.6 5.9 5.9v47.1c0 3.3-2.6 5.9-5.9 5.9h-47.2c-3.3 0-5.9-2.6-5.9-5.9v-47.1z m132.7 129.7h-5.9c-1.6 0-2.9 1.3-2.9 2.9V615c0 1.6 1.3 2.9 2.9 2.9h5.9c1.6 0 2.9-1.3 2.9-2.9v-58.9c0-1.6-1.3-2.9-2.9-2.9z m64.8-47.2H408.8c-1.6 0-2.9 1.3-2.9 3v5.9c0 1.6 1.3 2.9 2.9 2.9h206.3c1.6 0 3-1.3 3-2.9V509c-0.1-1.7-1.4-3-3-3z m-8.9-100.2h-58.9c-6.5 0-11.8 5.3-11.8 11.8v58.9c0 6.5 5.3 11.8 11.8 11.8h58.9c6.5 0 11.8-5.3 11.8-11.8v-58.9c0-6.5-5.2-11.8-11.8-11.8z m0 64.8c0 3.3-2.6 5.9-5.9 5.9h-47.2c-3.2 0-5.9-2.6-5.9-5.9v-47.1c0-3.3 2.6-5.9 5.9-5.9h47.2c3.2 0 5.9 2.6 5.9 5.9v47.1z m-26.5 82.6h-5.9c-0.8 0-1.5 0.3-2.1 0.9-0.6 0.6-0.9 1.3-0.9 2.1V615c0 1.6 1.3 2.9 2.9 2.9h5.9c1.6 0 3-1.3 3-2.9v-58.9c0.1-1.6-1.2-2.9-2.9-2.9z m29.5-17.7h-5.9c-1.6 0-3 1.3-3 2.9V615c0 1.6 1.3 2.9 3 2.9h5.9c1.6 0 2.9-1.3 2.9-2.9v-76.6c0-1.6-1.3-2.9-2.9-2.9z m0 0" p-id="5202"></path><path d="M850.5 447.6c-14.3-24.9-39.2-37-64.7-32.7l31.1-26c27.1-19.6 33.1-61.3 13-91-9.3-13.9-23.8-23.4-40.3-26.3-3-0.5-6-0.6-8.9-0.7 23.4-21.2 27.2-60.1 7.5-87.9-9.5-13.7-24.3-22.9-40.8-25.4-16.5-2.5-33.3 1.9-46.5 12.2l-8.4 7C680.5 153 656 136 628.2 136h-237c-37.9 0-69.9 33.1-69.9 72.2v105.2c-11.4-32.2-26.7-59.7-47.4-73.1-16.2-10.5-34.7-12.3-53.6-5-36.2 13.9-31.9 70.6-25.9 149 5.3 70.3 12 157.8-13 220.1-24 59.8-19.6 130 11.6 183.3 22.6 38.6 70 87.4 167.1 99.9 2 0.3 4.1 0.4 6.4 0.4 54.4 0 188.9-70.2 223.9-88.9h37.9c37.4 0 68.9-30 71.5-66.4 33.3-20.3 65.4-42.6 96.2-66.6 22.6-17 47.6-41.1 39.8-76.7-3.4-15.9-13.1-29.7-26.9-38.3-0.8-0.5-1.7-1-2.5-1.5l21.4-14.2c29.3-22.6 38.3-55.8 22.7-87.8zM668.6 687.2H352.8V247.9h315.7v439.3z m135.1-371.7c10.2 15.1 7.6 38.3-6.2 48.4l-97.3 81.5v-90l61.8-47.6c6.4-4.7 14.3-6.5 22.1-5.2 8 1.4 14.9 6 19.6 12.9z m-83.2-121.1c6.3-4.8 14.2-6.9 22-5.7 8 1.3 15.2 5.8 19.9 12.4 10.5 14.9 8.5 38.1-5.1 48.4l-57.1 49.2v-87.4l20.3-16.9z m-329.4-26.8h237c21.2 0 40.4 19.4 40.4 40.7v22.5H352.8v-22.5c0-22.1 17.6-40.7 38.3-40.7zM364 856.3c-66.8-8.6-116.6-37.9-143.9-84.6-26.4-45-30-104.6-9.5-155.5 27.8-69.2 20.8-160.7 15.2-234.2-3.6-47.1-8.5-111.6 5.7-117.1 9.6-3.7 17.3-3.1 25.1 2 39.7 25.7 60.7 152.3 64.6 226.2V728c0 39.2 31.4 71.1 69.9 71.1H521c-62.1 30.4-133.2 60.6-157 57.2z m264.2-88.8h-237c-21.1 0-38.3-17.7-38.3-39.5v-23.6h315.7V728c0 21-18.9 39.5-40.4 39.5z m148.3-126.4c-0.4 0.3-34.5 27.3-76.4 54.1V620l69.6-46.2c7.6-1.5 15.6-0.1 22.2 4 6.6 4.2 11.2 10.7 12.9 18.4 3.1 14.3-4.9 27.3-28.3 44.9z m32.8-131.5l-53.8 35.7-55.4 36.8v-77.7l82.1-56c14.9-7.7 31.3-1.7 40.3 14 8.6 17.4 3.6 34.4-13.2 47.2z m0 0" p-id="5203"></path><path d="M499.7 725.2c-3.2 3.2-4.7 6.9-4.7 11.4 0 4.1 1.6 8.2 4.7 11.1 2.8 2.8 6.9 4.7 11.1 4.7 4.3-0.1 8.3-1.8 11.4-4.7 6.1-6.3 5.9-16.3-0.3-22.4-6.3-6-16-6-22.2-0.1z m0 0" p-id="5204"></path></svg>